<svg xmlns="http://www.w3.org/2000/svg" width="64" height="64" viewBox="0 0 64 64" fill="none">
  <rect width="64" height="64" rx="14" fill="#FFFFFF"/>
  <rect x="0.5" y="0.5" width="63" height="63" rx="13.5" stroke="#E0E0E0"/>
  <path d="M43.6 32.2C43.6 31.2 43.5 30.3 43.4 29.4H32V34.7H38.5C38.2 36.4 37.2 37.8 35.8 38.8V42.2H39.9C42.2 40.1 43.6 36.5 43.6 32.2Z" fill="#4285F4"/>
  <path d="M32 45.4C35.9 45.4 39.2 44.1 41.4 41.9L37.3 38.5C36.1 39.3 34.6 39.8 32 39.8C28.3 39.8 25.2 37.7 24.1 34.7H19.9V38.2C22.1 42.5 26.7 45.4 32 45.4Z" fill="#34A853"/>
  <path d="M24.1 34.7C23.8 33.9 23.6 33 23.6 32C23.6 31.1 23.8 30.2 24.1 29.3V25.8H19.9C18.9 27.7 18.4 29.8 18.4 32C18.4 34.2 18.9 36.3 19.9 38.2L24.1 34.7Z" fill="#FBBC05"/>
  <path d="M32 24.2C34.4 24.2 36.5 25 38.2 26.5L41.5 23.2C39.2 21.1 35.9 19.6 32 19.6C26.7 19.6 22.1 22.5 19.9 26.8L24.1 30.3C25.2 27.3 28.3 24.2 32 24.2Z" fill="#EA4335"/>
</svg>